# xmcd CD database file
#
# Track frame offsets:
#	150
#	4572
#	16517
#	29915
#
# Disc length: 651 seconds
#
# Revision: 0
# Processed by: cddbd v1.5.1PL0 Copyright (c) Steve Scherf et al.
# Submitted via: CDex 1.51
#
DISCID=20028904
DTITLE=THE MAD PACHI-SLOT BROTHERS - 2/16384
DYEAR=2000
DGENRE=Other
TTITLE0=Screamin' Mad Pachi-slot
TTITLE1=N.N.S.S.
TTITLE2=psycho slot
TTITLE3=REEL GOD
EXTD=YEAR: 2000
EXTT0=
EXTT1=
EXTT2=
EXTT3=
PLAYORDER=
